<svg width="40" height="41" viewBox="0 0 40 41" fill="none" xmlns="http://www.w3.org/2000/svg">
<path d="M16.9974 16.3852C17.8306 16.3852 18.5385 16.0883 19.1211 15.4944C19.705 14.9019 19.997 14.1819 19.997 13.3345C19.997 12.487 19.705 11.7671 19.1211 11.1745C18.5385 10.5807 17.8306 10.2837 16.9974 10.2837C16.1642 10.2837 15.4563 10.5807 14.8737 11.1745C14.2898 11.7671 13.9979 12.487 13.9979 13.3345C13.9979 14.1819 14.2898 14.9019 14.8737 15.4944C15.4563 16.0883 16.1642 16.3852 16.9974 16.3852ZM12.998 26.5543C13.8312 26.5543 14.5391 26.2574 15.1217 25.6635C15.7056 25.071 15.9976 24.351 15.9976 23.5036C15.9976 22.6561 15.7056 21.9362 15.1217 21.3437C14.5391 20.7498 13.8312 20.4528 12.998 20.4528C12.1648 20.4528 11.4569 20.7498 10.8744 21.3437C10.2904 21.9362 9.99848 22.6561 9.99848 23.5036C9.99848 24.351 10.2904 25.071 10.8744 25.6635C11.4569 26.2574 12.1648 26.5543 12.998 26.5543ZM25.9961 28.5881C26.5626 28.5881 27.0379 28.3929 27.4218 28.0024C27.8045 27.6132 27.9958 27.1306 27.9958 26.5543C27.9958 25.9781 27.8045 25.4947 27.4218 25.1042C27.0379 24.7151 26.5626 24.5205 25.9961 24.5205C25.4295 24.5205 24.9549 24.7151 24.5723 25.1042C24.1883 25.4947 23.9964 25.9781 23.9964 26.5543C23.9964 27.1306 24.1883 27.6132 24.5723 28.0024C24.9549 28.3929 25.4295 28.5881 25.9961 28.5881ZM19.997 40.7911C17.2307 40.7911 14.6311 40.2568 12.1982 39.1884C9.76519 38.1213 7.64884 36.6726 5.84911 34.8421C4.04939 33.0117 2.62494 30.8592 1.57576 28.3847C0.525254 25.9103 0 23.2663 0 20.4528C0 17.7072 0.558582 15.0375 1.67575 12.4437C2.79158 9.85121 4.34134 7.57197 6.32504 5.60595C8.30741 3.63992 10.6651 2.14845 13.398 1.13154C16.1309 0.114629 19.1304 -0.190445 22.3966 0.21632C22.8965 0.284114 23.2798 0.495631 23.5464 0.850872C23.8131 1.20747 23.963 1.69084 23.9964 2.30099C24.063 4.4704 24.8549 6.32592 26.372 7.86756C27.8878 9.41055 29.6955 10.2159 31.7952 10.2837C32.4951 10.3176 33.0283 10.521 33.3949 10.8939C33.7616 11.2667 33.9615 11.843 33.9949 12.6226C34.0615 14.0463 34.4868 15.2158 35.2707 16.131C36.0532 17.0462 37.1444 17.7411 38.5442 18.2156C39.0108 18.3851 39.3687 18.6305 39.618 18.9519C39.8686 19.2746 39.9939 19.6732 39.9939 20.1478C40.0606 22.9612 39.5773 25.6221 38.5442 28.1305C37.511 30.6389 36.0945 32.8334 34.2948 34.714C32.4951 36.596 30.3621 38.0793 27.8958 39.164C25.4295 40.2487 22.7965 40.7911 19.997 40.7911ZM19.997 36.7234C24.063 36.7234 27.6711 35.2997 30.8213 32.4524C33.9702 29.605 35.6946 25.9781 35.9945 21.5714C34.3281 20.8257 33.0203 19.8088 32.0711 18.5207C31.1206 17.2326 30.4787 15.792 30.1454 14.1988C27.5792 13.826 25.3795 12.7074 23.5464 10.843C21.7134 8.9787 20.5802 6.7415 20.1469 4.13143C17.4807 4.06363 15.139 4.55514 13.122 5.60595C11.1063 6.65675 9.42391 8.00382 8.07478 9.64715C6.72431 11.2918 5.7078 13.0802 5.02524 15.0124C4.34134 16.9445 3.99939 18.758 3.99939 20.4528C3.99939 24.9611 5.55782 28.8003 8.67469 31.9704C11.7902 35.1391 15.5643 36.7234 19.997 36.7234Z" fill="#FF8210"/>
</svg>
