<svg width="59" height="42" viewBox="0 0 59 42" fill="none" xmlns="http://www.w3.org/2000/svg">
<g clip-path="url(#clip0_1_725)">
<path d="M39.9441 0.236816C34.3417 0.236816 29.3092 2.67259 25.8164 6.54723C25.8685 7.24558 25.8803 7.94561 25.8584 8.60179C26.1543 8.75023 26.4282 8.94084 26.6821 9.1635C29.7211 5.15054 34.5418 2.56632 39.9441 2.56632C49.1653 2.56632 56.6787 10.0946 56.6787 19.3486C56.6787 28.6025 49.167 36.1426 39.9441 36.1426C36.8731 36.1426 33.9938 35.3059 31.5145 33.8451C31.5986 34.7763 31.6524 35.7091 31.6944 36.5879C34.1955 37.7957 36.9908 38.4721 39.9457 38.4721C50.4545 38.4721 59.0017 29.8946 59.0017 19.3486C59.0017 8.80252 50.4528 0.236816 39.9441 0.236816Z" fill="black"/>
<path d="M21.3693 23.1557C20.9895 23.046 20.5877 23.2653 20.4566 23.6465L16.5368 34.9264L15.6241 27.5482H16.2326C16.5906 27.5482 16.8848 27.2547 16.8848 26.8937V24.8661C16.8848 24.495 16.5923 24.2015 16.2326 24.2015H12.9314C12.5734 24.2015 12.2792 24.495 12.2792 24.8661V26.8937C12.2792 27.253 12.5734 27.5482 12.9314 27.5482H13.5399L12.6272 34.9264L8.70738 23.6465C8.57627 23.2653 8.17455 23.0477 7.79467 23.1557C3.93877 24.3651 1.00734 27.6899 0.486276 31.9187C0.165231 34.5738 0.0458894 37.5578 0.000506097 39.4184C-0.023026 40.4187 0.777065 41.2368 1.7755 41.2368H27.3868C28.3836 41.2368 29.1853 40.4187 29.1618 39.4184C29.1164 37.5578 28.9971 34.5738 28.6777 31.9187C28.1567 27.6899 25.2252 24.3668 21.3693 23.1557Z" fill="black"/>
<path d="M5.15898 16.2703H6.45829C7.41302 19.9864 10.6957 22.7376 14.597 22.7376C18.4983 22.7376 21.7794 19.9864 22.7341 16.2703H24.0351C24.8318 16.2703 25.4773 15.6225 25.4773 14.823V12.2641C25.4773 11.4645 24.8318 10.8168 24.0351 10.8168H23.0098C23.6653 6.97756 22.9039 1.94576 20.7809 2.87183C18.6513 3.80127 6.9138 0.815587 7.6164 5.77317C5.58928 5.84739 5.82628 8.78078 6.2196 10.8168H5.15898C4.36225 10.8168 3.7168 11.4645 3.7168 12.2641V14.823C3.7168 15.6225 4.36225 16.2703 5.15898 16.2703ZM8.56945 14.3557C8.88713 14.3827 9.15271 14.1145 9.11405 13.7974C8.95101 12.4041 8.69552 9.14007 9.90406 9.45382C11.437 9.85192 13.096 10.3074 14.5802 10.3074C16.0644 10.3074 17.7251 9.85192 19.2564 9.45382C20.4649 9.14007 20.2078 12.4041 20.0464 13.7974C20.0094 14.1162 20.2733 14.3827 20.591 14.3557L21.1104 14.3119C21.0952 14.7403 21.0431 15.157 20.9541 15.5618C19.5892 16.2163 17.947 16.471 16.6897 16.471H16.5267C16.4594 16.0662 16.1249 15.7507 15.7014 15.7507H13.4574C12.9868 15.7507 12.6052 16.1337 12.6052 16.606V17.7108C12.6052 18.1832 12.9868 18.5661 13.4574 18.5661H15.7014C16.1233 18.5661 16.4594 18.2506 16.5267 17.8458H16.6897C17.2646 17.8458 18.7555 17.7834 20.3321 17.2841C19.2244 19.396 17.0679 20.8315 14.5953 20.8315C11.0807 20.8315 8.21311 17.9301 8.07864 14.3153L8.56777 14.3574L8.56945 14.3557Z" fill="black"/>
<path d="M52.395 19.3535C52.395 12.4544 46.8213 6.86084 39.9465 6.86084C33.0718 6.86084 27.498 12.4544 27.498 19.3535C27.498 26.2526 33.0718 31.8461 39.9465 31.8461C46.8213 31.8461 52.395 26.2526 52.395 19.3535ZM43.0343 25.6504C42.2997 26.4668 41.0626 27.9209 38.8086 27.9209C37.6152 27.9209 36.7529 26.7772 37.0739 25.6268L38.9078 19.0448C39.0019 18.7074 38.7044 18.3869 38.3631 18.4628C37.9799 18.5505 37.4841 18.7327 36.9647 19.1139C36.7596 19.2641 36.4739 19.2337 36.3175 19.0313C36.1797 18.8542 36.1864 18.6028 36.3377 18.4358C37.0722 17.6211 38.3094 16.1671 40.5634 16.1671C41.7568 16.1671 42.6191 17.3074 42.2981 18.4611L40.4642 25.0431C40.3701 25.3805 40.6676 25.701 41.0088 25.6234C41.3921 25.5374 41.8896 25.3552 42.409 24.974C42.6141 24.8239 42.8998 24.8559 43.0561 25.0566C43.1956 25.2338 43.1872 25.4851 43.036 25.6521L43.0343 25.6504ZM41.6812 14.7906C40.5785 14.7906 39.686 13.8932 39.686 12.7883C39.686 11.6835 40.5785 10.7844 41.6812 10.7844C42.7838 10.7844 43.6764 11.6818 43.6764 12.7883C43.6764 13.8949 42.7821 14.7906 41.6812 14.7906Z" fill="#FF8210"/>
</g>
<defs>
<clipPath id="clip0_1_725">
<rect width="59" height="41" fill="white" transform="translate(0 0.236816)"/>
</clipPath>
</defs>
</svg>
